<?xml version="1.0" encoding="UTF-8" standalone="no"?>
<!DOCTYPE svg PUBLIC "-//W3C//DTD SVG 1.1//EN"
 "http://www.w3.org/Graphics/SVG/1.1/DTD/svg11.dtd">
<!-- Generated by graphviz version 2.43.0 (0)
 -->
<!-- Title: %3 Pages: 1 -->
<svg width="818pt" height="332pt"
 viewBox="0.00 0.00 817.59 332.00" xmlns="http://www.w3.org/2000/svg" xmlns:xlink="http://www.w3.org/1999/xlink">
<g id="graph0" class="graph" transform="scale(1 1) rotate(0) translate(4 328)">
<title>%3</title>
<polygon fill="white" stroke="transparent" points="-4,4 -4,-328 813.59,-328 813.59,4 -4,4"/>
<!-- 140573747517472 -->
<g id="node1" class="node">
<title>140573747517472</title>
<ellipse fill="none" stroke="black" cx="128.79" cy="-306" rx="59.59" ry="18"/>
<text text-anchor="middle" x="128.79" y="-302.3" font-family="Times,serif" font-size="14.00">sleeper 01</text>
</g>
<!-- 140573747518336 -->
<g id="node4" class="node">
<title>140573747518336</title>
<ellipse fill="none" stroke="black" cx="59.79" cy="-234" rx="59.59" ry="18"/>
<text text-anchor="middle" x="59.79" y="-230.3" font-family="Times,serif" font-size="14.00">sleeper 15</text>
</g>
<!-- 140573747517472&#45;&gt;140573747518336 -->
<g id="edge13" class="edge">
<title>140573747517472&#45;&gt;140573747518336</title>
<path fill="none" stroke="black" d="M112.44,-288.41C103.68,-279.52 92.73,-268.41 83.09,-258.63"/>
<polygon fill="black" stroke="black" points="85.54,-256.13 76.03,-251.47 80.56,-261.05 85.54,-256.13"/>
</g>
<!-- 140573747518192 -->
<g id="node14" class="node">
<title>140573747518192</title>
<ellipse fill="none" stroke="black" cx="197.79" cy="-234" rx="59.59" ry="18"/>
<text text-anchor="middle" x="197.79" y="-230.3" font-family="Times,serif" font-size="14.00">sleeper 14</text>
</g>
<!-- 140573747517472&#45;&gt;140573747518192 -->
<g id="edge6" class="edge">
<title>140573747517472&#45;&gt;140573747518192</title>
<path fill="none" stroke="black" d="M145.15,-288.41C153.91,-279.52 164.86,-268.41 174.5,-258.63"/>
<polygon fill="black" stroke="black" points="177.03,-261.05 181.56,-251.47 172.05,-256.13 177.03,-261.05"/>
</g>
<!-- 140573747517760 -->
<g id="node2" class="node">
<title>140573747517760</title>
<ellipse fill="none" stroke="black" cx="473.79" cy="-234" rx="59.59" ry="18"/>
<text text-anchor="middle" x="473.79" y="-230.3" font-family="Times,serif" font-size="14.00">sleeper 11</text>
</g>
<!-- 140573747565280 -->
<g id="node6" class="node">
<title>140573747565280</title>
<ellipse fill="none" stroke="black" cx="507.79" cy="-162" rx="59.59" ry="18"/>
<text text-anchor="middle" x="507.79" y="-158.3" font-family="Times,serif" font-size="14.00">sleeper 21</text>
</g>
<!-- 140573747517760&#45;&gt;140573747565280 -->
<g id="edge17" class="edge">
<title>140573747517760&#45;&gt;140573747565280</title>
<path fill="none" stroke="black" d="M482.03,-216.05C485.89,-208.09 490.6,-198.41 494.92,-189.51"/>
<polygon fill="black" stroke="black" points="498.18,-190.8 499.4,-180.28 491.89,-187.74 498.18,-190.8"/>
</g>
<!-- 140573747518048 -->
<g id="node3" class="node">
<title>140573747518048</title>
<ellipse fill="none" stroke="black" cx="335.79" cy="-234" rx="59.59" ry="18"/>
<text text-anchor="middle" x="335.79" y="-230.3" font-family="Times,serif" font-size="14.00">sleeper 13</text>
</g>
<!-- 140573747565424 -->
<g id="node15" class="node">
<title>140573747565424</title>
<ellipse fill="none" stroke="black" cx="266.79" cy="-162" rx="59.59" ry="18"/>
<text text-anchor="middle" x="266.79" y="-158.3" font-family="Times,serif" font-size="14.00">sleeper 22</text>
</g>
<!-- 140573747518048&#45;&gt;140573747565424 -->
<g id="edge8" class="edge">
<title>140573747518048&#45;&gt;140573747565424</title>
<path fill="none" stroke="black" d="M319.44,-216.41C310.68,-207.52 299.73,-196.41 290.09,-186.63"/>
<polygon fill="black" stroke="black" points="292.54,-184.13 283.03,-179.47 287.56,-189.05 292.54,-184.13"/>
</g>
<!-- 140573747565568 -->
<g id="node7" class="node">
<title>140573747565568</title>
<ellipse fill="none" stroke="black" cx="94.79" cy="-162" rx="59.59" ry="18"/>
<text text-anchor="middle" x="94.79" y="-158.3" font-family="Times,serif" font-size="14.00">sleeper 23</text>
</g>
<!-- 140573747518336&#45;&gt;140573747565568 -->
<g id="edge9" class="edge">
<title>140573747518336&#45;&gt;140573747565568</title>
<path fill="none" stroke="black" d="M68.27,-216.05C72.29,-208.01 77.19,-198.2 81.68,-189.23"/>
<polygon fill="black" stroke="black" points="84.82,-190.78 86.16,-180.28 78.55,-187.65 84.82,-190.78"/>
</g>
<!-- 140573747565088 -->
<g id="node5" class="node">
<title>140573747565088</title>
<ellipse fill="none" stroke="black" cx="714.79" cy="-162" rx="59.59" ry="18"/>
<text text-anchor="middle" x="714.79" y="-158.3" font-family="Times,serif" font-size="14.00">sleeper 20</text>
</g>
<!-- 140573747567968 -->
<g id="node8" class="node">
<title>140573747567968</title>
<ellipse fill="none" stroke="black" cx="507.79" cy="-90" rx="59.59" ry="18"/>
<text text-anchor="middle" x="507.79" y="-86.3" font-family="Times,serif" font-size="14.00">sleeper 30</text>
</g>
<!-- 140573747565088&#45;&gt;140573747567968 -->
<g id="edge1" class="edge">
<title>140573747565088&#45;&gt;140573747567968</title>
<path fill="none" stroke="black" d="M676.34,-148C642.21,-136.46 592.21,-119.55 555.53,-107.14"/>
<polygon fill="black" stroke="black" points="556.63,-103.82 546.04,-103.93 554.39,-110.45 556.63,-103.82"/>
</g>
<!-- 140573747565280&#45;&gt;140573747567968 -->
<g id="edge5" class="edge">
<title>140573747565280&#45;&gt;140573747567968</title>
<path fill="none" stroke="black" d="M507.79,-143.7C507.79,-135.98 507.79,-126.71 507.79,-118.11"/>
<polygon fill="black" stroke="black" points="511.29,-118.1 507.79,-108.1 504.29,-118.1 511.29,-118.1"/>
</g>
<!-- 140573747568160 -->
<g id="node9" class="node">
<title>140573747568160</title>
<ellipse fill="none" stroke="black" cx="266.79" cy="-90" rx="59.59" ry="18"/>
<text text-anchor="middle" x="266.79" y="-86.3" font-family="Times,serif" font-size="14.00">sleeper 31</text>
</g>
<!-- 140573747565568&#45;&gt;140573747568160 -->
<g id="edge14" class="edge">
<title>140573747565568&#45;&gt;140573747568160</title>
<path fill="none" stroke="black" d="M128.78,-147.17C155.78,-136.18 193.74,-120.73 223.02,-108.81"/>
<polygon fill="black" stroke="black" points="224.65,-111.93 232.59,-104.92 222.01,-105.45 224.65,-111.93"/>
</g>
<!-- 140573747598528 -->
<g id="node10" class="node">
<title>140573747598528</title>
<ellipse fill="none" stroke="black" cx="369.79" cy="-18" rx="59.59" ry="18"/>
<text text-anchor="middle" x="369.79" y="-14.3" font-family="Times,serif" font-size="14.00">sleeper 40</text>
</g>
<!-- 140573747567968&#45;&gt;140573747598528 -->
<g id="edge10" class="edge">
<title>140573747567968&#45;&gt;140573747598528</title>
<path fill="none" stroke="black" d="M478.53,-74.15C458.04,-63.76 430.45,-49.77 408.2,-38.48"/>
<polygon fill="black" stroke="black" points="409.52,-35.23 399.02,-33.82 406.35,-41.47 409.52,-35.23"/>
</g>
<!-- 140573747568160&#45;&gt;140573747598528 -->
<g id="edge4" class="edge">
<title>140573747568160&#45;&gt;140573747598528</title>
<path fill="none" stroke="black" d="M289.91,-73.29C304.22,-63.56 322.79,-50.95 338.42,-40.32"/>
<polygon fill="black" stroke="black" points="340.45,-43.17 346.76,-34.66 336.52,-37.38 340.45,-43.17"/>
</g>
<!-- 140573727023312 -->
<g id="node11" class="node">
<title>140573727023312</title>
<ellipse fill="none" stroke="black" cx="542.79" cy="-306" rx="59.59" ry="18"/>
<text text-anchor="middle" x="542.79" y="-302.3" font-family="Times,serif" font-size="14.00">sleeper 00</text>
</g>
<!-- 140573727023312&#45;&gt;140573747517760 -->
<g id="edge15" class="edge">
<title>140573727023312&#45;&gt;140573747517760</title>
<path fill="none" stroke="black" d="M526.44,-288.41C517.68,-279.52 506.73,-268.41 497.09,-258.63"/>
<polygon fill="black" stroke="black" points="499.54,-256.13 490.03,-251.47 494.56,-261.05 499.54,-256.13"/>
</g>
<!-- 140573727023312&#45;&gt;140573747518048 -->
<g id="edge11" class="edge">
<title>140573727023312&#45;&gt;140573747518048</title>
<path fill="none" stroke="black" d="M504.34,-292C470.21,-280.46 420.21,-263.55 383.53,-251.14"/>
<polygon fill="black" stroke="black" points="384.63,-247.82 374.04,-247.93 382.39,-254.45 384.63,-247.82"/>
</g>
<!-- 140573747517616 -->
<g id="node12" class="node">
<title>140573747517616</title>
<ellipse fill="none" stroke="black" cx="749.79" cy="-234" rx="59.59" ry="18"/>
<text text-anchor="middle" x="749.79" y="-230.3" font-family="Times,serif" font-size="14.00">sleeper 10</text>
</g>
<!-- 140573727023312&#45;&gt;140573747517616 -->
<g id="edge2" class="edge">
<title>140573727023312&#45;&gt;140573747517616</title>
<path fill="none" stroke="black" d="M581.24,-292C615.38,-280.46 665.38,-263.55 702.06,-251.14"/>
<polygon fill="black" stroke="black" points="703.2,-254.45 711.55,-247.93 700.96,-247.82 703.2,-254.45"/>
</g>
<!-- 140573747517904 -->
<g id="node13" class="node">
<title>140573747517904</title>
<ellipse fill="none" stroke="black" cx="611.79" cy="-234" rx="59.59" ry="18"/>
<text text-anchor="middle" x="611.79" y="-230.3" font-family="Times,serif" font-size="14.00">sleeper 12</text>
</g>
<!-- 140573727023312&#45;&gt;140573747517904 -->
<g id="edge12" class="edge">
<title>140573727023312&#45;&gt;140573747517904</title>
<path fill="none" stroke="black" d="M559.15,-288.41C567.91,-279.52 578.86,-268.41 588.5,-258.63"/>
<polygon fill="black" stroke="black" points="591.03,-261.05 595.56,-251.47 586.05,-256.13 591.03,-261.05"/>
</g>
<!-- 140573747517616&#45;&gt;140573747565088 -->
<g id="edge18" class="edge">
<title>140573747517616&#45;&gt;140573747565088</title>
<path fill="none" stroke="black" d="M741.32,-216.05C737.3,-208.01 732.4,-198.2 727.91,-189.23"/>
<polygon fill="black" stroke="black" points="731.04,-187.65 723.43,-180.28 724.77,-190.78 731.04,-187.65"/>
</g>
<!-- 140573747517904&#45;&gt;140573747565280 -->
<g id="edge3" class="edge">
<title>140573747517904&#45;&gt;140573747565280</title>
<path fill="none" stroke="black" d="M588.46,-217.29C574,-207.56 555.26,-194.95 539.47,-184.32"/>
<polygon fill="black" stroke="black" points="541.31,-181.34 531.06,-178.66 537.4,-187.14 541.31,-181.34"/>
</g>
<!-- 140573747518192&#45;&gt;140573747565424 -->
<g id="edge7" class="edge">
<title>140573747518192&#45;&gt;140573747565424</title>
<path fill="none" stroke="black" d="M214.15,-216.41C222.91,-207.52 233.86,-196.41 243.5,-186.63"/>
<polygon fill="black" stroke="black" points="246.03,-189.05 250.56,-179.47 241.05,-184.13 246.03,-189.05"/>
</g>
<!-- 140573747565424&#45;&gt;140573747568160 -->
<g id="edge16" class="edge">
<title>140573747565424&#45;&gt;140573747568160</title>
<path fill="none" stroke="black" d="M266.79,-143.7C266.79,-135.98 266.79,-126.71 266.79,-118.11"/>
<polygon fill="black" stroke="black" points="270.29,-118.1 266.79,-108.1 263.29,-118.1 270.29,-118.1"/>
</g>
</g>
</svg>
